<?xml version="1.0" encoding="UTF-8" standalone="no"?><!-- Generator: Gravit.io --><svg xmlns="http://www.w3.org/2000/svg" xmlns:xlink="http://www.w3.org/1999/xlink" style="isolation:isolate" viewBox="0 0 185 60" width="185pt" height="60pt"><defs><clipPath id="_clipPath_WyafBMi1vzNCV9s2oACLFRSYjaByQC40"><rect width="185" height="60"/></clipPath></defs><g clip-path="url(#_clipPath_WyafBMi1vzNCV9s2oACLFRSYjaByQC40)"><clipPath id="_clipPath_rKjJu3pkdhcVhX9MQLybwMliAADfAvid"><rect x="0" y="0" width="60" height="60" transform="matrix(1,0,0,1,0,0)" fill="rgb(255,255,255)"/></clipPath><g clip-path="url(#_clipPath_rKjJu3pkdhcVhX9MQLybwMliAADfAvid)"><g><g><path d=" M 33.183 16.963 C 37.358 11.344 36.513 5.949 29.822 0.703 C 22.648 6.326 22.33 12.108 26.895 17.652 C 27.57 18.441 29.822 20.58 29.822 20.58 C 29.822 20.58 32.323 20.532 36.13 22.042 C 36.13 22.042 34.402 19.015 31.918 16.871 C 29.056 14.403 25.874 9.986 29.822 6.326 C 32.486 8.797 31.902 11.613 30.361 13.94 C 30.361 13.94 30.538 14.505 32.442 16.273 C 32.718 16.529 32.934 16.77 33.183 16.963 Z " fill="rgb(255,255,255)"/><path d=" M 29.149 21.074 C 29.149 21.074 27.254 23.089 26.194 26.459 C 25.247 29.467 25.152 32.382 25.152 32.382 C 23.553 32.005 21.2 30.032 21.2 30.032 C 21.461 26.346 22.856 23.172 22.856 23.172 C 23.946 20.326 26.276 18.198 26.276 18.198 L 29.149 21.074 Z " fill="rgb(255,255,255)"/><path d=" M 16.729 26.7 C 11.111 22.526 5.716 23.37 0.472 30.062 C 6.093 37.236 11.874 37.555 17.419 32.989 C 18.208 32.313 20.346 30.062 20.346 30.062 C 20.346 30.062 20.299 27.559 21.811 23.753 C 21.811 23.753 18.782 25.482 16.639 27.967 C 14.168 30.829 9.753 34.01 6.092 30.062 C 8.564 27.397 11.38 27.981 13.709 29.522 C 13.709 29.522 14.27 29.347 16.041 27.441 C 16.295 27.166 16.537 26.949 16.729 26.7 Z " fill="rgb(255,255,255)"/><path d=" M 20.841 30.734 C 20.841 30.734 22.856 32.63 26.226 33.69 C 29.234 34.636 32.149 34.732 32.149 34.732 C 31.772 36.33 29.799 38.684 29.799 38.684 C 26.113 38.421 22.939 37.027 22.939 37.027 C 20.093 35.938 17.965 33.607 17.965 33.607 L 20.841 30.734 Z " fill="rgb(255,255,255)"/><path d=" M 26.465 43.154 C 22.293 48.771 23.137 54.168 29.829 59.414 C 37.002 53.791 37.322 48.009 32.756 42.465 C 32.082 41.676 29.829 39.537 29.829 39.537 C 29.829 39.537 27.326 39.585 23.52 38.074 C 23.52 38.074 25.249 41.101 27.734 43.244 C 30.596 45.714 33.777 50.13 29.829 53.791 C 27.164 51.321 27.748 48.504 29.289 46.175 C 29.289 46.175 29.114 45.613 27.208 43.844 C 26.933 43.588 26.717 43.346 26.465 43.154 Z " fill="rgb(255,255,255)"/><path d=" M 30.501 39.043 C 30.501 39.043 32.397 37.027 33.457 33.656 C 34.402 30.65 34.499 27.733 34.499 27.733 C 36.097 28.112 38.45 30.083 38.45 30.083 C 38.188 33.769 36.794 36.942 36.794 36.942 C 35.706 39.791 33.374 41.919 33.374 41.919 L 30.501 39.043 Z " fill="rgb(255,255,255)"/><path d=" M 42.921 33.417 C 48.538 37.591 53.935 36.747 59.18 30.055 C 53.556 22.881 47.776 22.563 42.232 27.128 C 41.443 27.804 39.304 30.055 39.304 30.055 C 39.304 30.055 39.351 32.556 37.841 36.363 C 37.841 36.363 40.868 34.635 43.011 32.149 C 45.482 29.289 49.897 26.107 53.558 30.055 C 51.086 32.72 48.271 32.135 45.942 30.594 C 45.942 30.594 45.38 30.771 43.609 32.676 C 43.355 32.949 43.113 33.167 42.921 33.417 Z " fill="rgb(255,255,255)"/><path d=" M 38.809 29.382 C 38.809 29.382 36.794 27.487 33.425 26.427 C 30.417 25.481 27.501 25.385 27.501 25.385 C 27.878 23.787 29.85 21.433 29.85 21.433 C 33.537 21.694 36.711 23.09 36.711 23.09 C 39.557 24.179 41.687 26.51 41.687 26.51 L 38.809 29.382 Z " fill="rgb(255,255,255)"/><path d=" M 6.945 23.777 C 7.939 23.46 8.999 23.288 10.098 23.288 C 10.539 23.288 10.97 23.312 11.397 23.366 C 13.375 17.921 17.709 13.597 23.155 11.623 C 23.106 11.216 23.095 10.799 23.095 10.379 C 23.095 9.257 23.269 8.179 23.598 7.166 C 15.522 9.358 9.153 15.709 6.945 23.777 Z " fill="rgb(255,255,255)"/><path d=" M 23.544 52.94 C 23.227 51.944 23.055 50.885 23.055 49.785 C 23.055 49.345 23.08 48.914 23.133 48.487 C 17.688 46.509 13.364 42.175 11.39 36.727 C 10.983 36.777 10.566 36.788 10.146 36.788 C 9.024 36.788 7.944 36.614 6.933 36.286 C 9.125 44.363 15.475 50.73 23.544 52.94 Z " fill="rgb(255,255,255)"/><path d=" M 52.707 36.34 C 51.711 36.655 50.652 36.828 49.552 36.828 C 49.112 36.828 48.68 36.804 48.254 36.75 C 46.275 42.195 41.941 46.52 36.496 48.494 C 36.544 48.901 36.555 49.319 36.555 49.738 C 36.555 50.86 36.383 51.939 36.053 52.95 C 44.128 50.759 50.497 44.408 52.707 36.34 Z " fill="rgb(255,255,255)"/><path d=" M 36.107 7.178 C 36.424 8.172 36.596 9.232 36.596 10.332 C 36.596 10.772 36.571 11.203 36.517 11.63 C 41.962 13.608 46.286 17.94 48.26 23.388 C 48.667 23.339 49.084 23.328 49.506 23.328 C 50.627 23.328 51.706 23.501 52.718 23.829 C 50.525 15.754 44.175 9.388 36.107 7.178 Z " fill="rgb(255,255,255)"/></g></g></g><path d=" M 78.521 17.203 L 78.521 17.203 L 78.521 17.203 Q 73.199 17.203 70.118 20.748 L 70.118 20.748 L 70.118 20.748 Q 67.037 24.292 67.037 30.454 L 67.037 30.454 L 67.037 30.454 Q 67.037 36.792 70.007 40.249 L 70.007 40.249 L 70.007 40.249 Q 72.978 43.705 78.477 43.705 L 78.477 43.705 L 78.477 43.705 Q 81.856 43.705 86.184 42.49 L 86.184 42.49 L 86.184 45.781 L 86.184 45.781 Q 82.828 47.04 77.903 47.04 L 77.903 47.04 L 77.903 47.04 Q 70.769 47.04 66.893 42.711 L 66.893 42.711 L 66.893 42.711 Q 63.018 38.382 63.018 30.41 L 63.018 30.41 L 63.018 30.41 Q 63.018 25.419 64.884 21.664 L 64.884 21.664 L 64.884 21.664 Q 66.75 17.91 70.272 15.878 L 70.272 15.878 L 70.272 15.878 Q 73.795 13.846 78.565 13.846 L 78.565 13.846 L 78.565 13.846 Q 83.645 13.846 87.443 15.701 L 87.443 15.701 L 85.853 18.926 L 85.853 18.926 Q 82.187 17.203 78.521 17.203 Z  M 130.045 14.31 L 121.409 46.598 L 117.699 46.598 L 111.184 24.977 L 111.184 24.977 Q 110.72 23.541 110.146 21.355 L 110.146 21.355 L 110.146 21.355 Q 109.572 19.169 109.55 18.727 L 109.55 18.727 L 109.55 18.727 Q 109.064 21.642 108.004 25.109 L 108.004 25.109 L 101.688 46.598 L 97.978 46.598 L 89.387 14.31 L 93.362 14.31 L 98.463 34.253 L 98.463 34.253 Q 99.524 38.449 100.009 41.85 L 100.009 41.85 L 100.009 41.85 Q 100.606 37.808 101.776 33.943 L 101.776 33.943 L 107.562 14.31 L 111.538 14.31 L 117.611 34.12 L 117.611 34.12 Q 118.671 37.543 119.4 41.85 L 119.4 41.85 L 119.4 41.85 Q 119.819 38.714 120.99 34.208 L 120.99 34.208 L 126.069 14.31 L 130.045 14.31 Z  M 153.322 38.007 L 153.322 38.007 L 153.322 38.007 Q 153.322 42.269 150.23 44.654 L 150.23 44.654 L 150.23 44.654 Q 147.138 47.04 141.838 47.04 L 141.838 47.04 L 141.838 47.04 Q 136.096 47.04 133.004 45.56 L 133.004 45.56 L 133.004 41.938 L 133.004 41.938 Q 134.992 42.777 137.333 43.263 L 137.333 43.263 L 137.333 43.263 Q 139.674 43.749 141.97 43.749 L 141.97 43.749 L 141.97 43.749 Q 145.725 43.749 147.624 42.325 L 147.624 42.325 L 147.624 42.325 Q 149.523 40.9 149.523 38.36 L 149.523 38.36 L 149.523 38.36 Q 149.523 36.682 148.85 35.611 L 148.85 35.611 L 148.85 35.611 Q 148.176 34.54 146.597 33.634 L 146.597 33.634 L 146.597 33.634 Q 145.018 32.729 141.794 31.58 L 141.794 31.58 L 141.794 31.58 Q 137.288 29.968 135.356 27.76 L 135.356 27.76 L 135.356 27.76 Q 133.424 25.551 133.424 21.996 L 133.424 21.996 L 133.424 21.996 Q 133.424 18.263 136.228 16.055 L 136.228 16.055 L 136.228 16.055 Q 139.033 13.846 143.649 13.846 L 143.649 13.846 L 143.649 13.846 Q 148.463 13.846 152.505 15.613 L 152.505 15.613 L 151.334 18.882 L 151.334 18.882 Q 147.337 17.203 143.56 17.203 L 143.56 17.203 L 143.56 17.203 Q 140.579 17.203 138.901 18.484 L 138.901 18.484 L 138.901 18.484 Q 137.222 19.765 137.222 22.04 L 137.222 22.04 L 137.222 22.04 Q 137.222 23.718 137.84 24.789 L 137.84 24.789 L 137.84 24.789 Q 138.459 25.86 139.927 26.755 L 139.927 26.755 L 139.927 26.755 Q 141.396 27.649 144.422 28.731 L 144.422 28.731 L 144.422 28.731 Q 149.501 30.542 151.412 32.618 L 151.412 32.618 L 151.412 32.618 Q 153.322 34.694 153.322 38.007 Z  M 184.108 46.598 L 180.221 46.598 L 176.202 36.329 L 163.26 36.329 L 159.285 46.598 L 155.486 46.598 L 168.251 14.178 L 171.409 14.178 L 184.108 46.598 Z  M 164.585 32.95 L 175.031 32.95 L 171.277 22.945 L 171.277 22.945 Q 170.548 21.046 169.775 18.285 L 169.775 18.285 L 169.775 18.285 Q 169.289 20.405 168.384 22.945 L 168.384 22.945 L 164.585 32.95 Z " fill="rgb(255,255,255)"/></g></svg>